<svg width="16" height="16" xmlns="http://www.w3.org/2000/svg">

 <g>
  <title>background</title>
  <rect fill="none" id="canvas_background" height="402" width="582" y="-1" x="-1"/>
 </g>
 <g>
  <title>Layer 1</title>
  <path id="svg_1" fill="#e0e0e0" d="m14.782794,1.549996l-13.013112,0c-0.406181,0 -0.607558,0.495014 -0.317211,0.778644l4.614328,4.507685l0,7.085645c0,0.38179 0.4421,0.591107 0.737721,0.354327l3.511539,-2.812429c0.107568,-0.086169 0.170162,-0.216495 0.170162,-0.354327l0,-4.273243l4.613784,-4.507657c0.290618,-0.283875 0.088616,-0.778644 -0.317211,-0.778644z"/>
  <path stroke="null" id="svg_4" d="m9,10.891682l2.104704,0l0,-1.954181l2.159027,0l0,1.954181l2.104705,0l0,2.004619l-2.104705,0l0,1.954181l-2.159027,0l0,-1.954181l-2.104704,0l0,-2.004619z" stroke-opacity="null" stroke-width="NaN" fill="#A0D58A"/>
 </g>
</svg>