<svg width="128" height="128" viewBox="0 0 128 128" version="1.1" xmlns="http://www.w3.org/2000/svg" xmlns:xlink="http://www.w3.org/1999/xlink" xml:space="preserve" xmlns:serif="http://www.serif.com/" style="fill-rule:evenodd;clip-rule:evenodd;stroke-linejoin:round;stroke-miterlimit:2;">
    <path d="M16,16c-4.392,0 -8,3.608 -8,8l0,80c0,4.392 3.608,8 8,8l96,-0c4.392,-0 8,-3.608 8,-8l-0,-56c-0,-4.392 -3.608,-8 -8,-8l-32,0c-4.392,0 -8,-3.608 -8,-8l0,-8c0,-4.392 -3.608,-8 -8,-8l-48,0Z" style="fill:#88b6dd;fill-rule:nonzero;"/>
    <path d="M123.141,55.461l-62.637,-0c-1.955,-0 -2.925,2.382 -1.527,3.748l22.211,21.697l-0,34.106c-0,1.838 2.128,2.845 3.55,1.706l16.903,-13.538c0.518,-0.415 0.819,-1.042 0.819,-1.705l-0,-20.569l22.208,-21.697c1.399,-1.367 0.427,-3.748 -1.527,-3.748Z" style="fill:#e0e0e0;fill-rule:nonzero;"/>
</svg>